<svg xmlns="http://www.w3.org/2000/svg" viewBox="0 0 89.01 22.23"><defs><style>.cls-1{fill:#fff;}.cls-2{fill:none;}</style></defs><title>zhiyun-logo</title><g id="图层_2" data-name="图层 2"><g id="图层_1-2" data-name="图层 1"><rect class="cls-1" width="21.28" height="1.93"/><rect class="cls-1" x="4.76" y="2.9" width="16.45" height="1.93"/><rect class="cls-1" x="8.61" y="5.8" width="10.59" height="1.93"/><rect class="cls-1" x="12.47" y="8.7" width="4.76" height="1.93"/><rect class="cls-1" y="20.3" width="19.35" height="1.93"/><rect class="cls-1" x="5.77" y="17.4" width="12.55" height="1.93"/><rect class="cls-1" x="6.16" y="14.5" width="10.22" height="1.93"/><rect class="cls-1" x="9.61" y="11.6" width="5.62" height="1.93"/><rect class="cls-1" x="2.87" y="17.4" width="1.93" height="1.93"/><rect class="cls-1" x="22.24" width="1.93" height="1.93"/><polygon class="cls-1" points="22.24 20.3 20.32 20.3 20.32 22.23 22.24 22.23 22.25 22.23 24.17 22.23 24.17 20.3 22.25 20.3 22.24 20.3"/><path class="cls-1" d="M37,21.48H27.17V19H37Zm-2.73-5.09h-7.1V14l2.88-4.54H27.23V7.08L30.92.71,33.05,2,30.14,7h1.55l.92-1.43,2.1,1.33-4.5,7h4.1Zm5.79-1.68-3,6.77h-1l-1.42-.64,3.11-7.12ZM46.86,1V13.26H35.93V1Zm-2.49,9.76V3.5h-6v7.27Zm.55,3,3,6.76-2.26,1-3-6.76Z"/><path class="cls-1" d="M70.86,10.54H57L52.85,19H67.54l1.38-3.54,2.3.9-2,5.14h-19V18.72l4-8.18h-4V8.05H70.86Zm-4.1-7.27h-16V.81h16Z"/><rect class="cls-1" x="67.81" y="0.81" width="2.47" height="2.47"/><rect class="cls-2" x="74.06" y="0.06" width="14.95" height="5.67" rx="1.25" ry="1.25"/><path class="cls-2" d="M76.09,1.12h.44V4.33h2.29v.35H76.09Z"/><path class="cls-2" d="M79.38,1.12h.45V4.68h-.45Z"/><path class="cls-2" d="M80.35,1.12h3.24v.35H82.2V4.68h-.45V1.47h-1.4Z"/><path class="cls-2" d="M84.09,1.12h2.8v.35H84.54v1.2h2.22V3H84.54V4.33H87v.35h-2.9Z"/></g></g></svg>